<?xml version="1.0" encoding="UTF-8"?>
<svg width="204px" height="68px" viewBox="0 0 204 68" version="1.1" xmlns="http://www.w3.org/2000/svg" xmlns:xlink="http://www.w3.org/1999/xlink">
    <!-- Generator: Sketch 51.3 (57544) - http://www.bohemiancoding.com/sketch -->
    <title>Group 73</title>
    <desc>Created with Sketch.</desc>
    <defs>
        <polygon id="path-1" points="0.0601866735 0.205851429 8.69648904 0.205851429 8.69648904 6 0.0601866735 6"></polygon>
        <polygon id="path-3" points="0.385508387 0.202803704 11.7487179 0.202803704 11.7487179 16.3812157 0.385508387 16.3812157"></polygon>
    </defs>
    <g id="Designs" stroke="none" stroke-width="1" fill="none" fill-rule="evenodd">
        <g id="Group-73">
            <g id="Group-3" transform="translate(8.000000, 62.000000)">
                <mask id="mask-2" fill="white">
                    <use xlink:href="#path-1"></use>
                </mask>
                <g id="Clip-2"></g>
                <path d="M0.44244,5.64905143 C0.428297143,5.64905143 0.42264,5.64630857 0.421225714,5.64356571 C0.42264,5.64630857 0.424054286,5.64630857 0.424054286,5.64630857 C0.424054286,5.64630857 0.42264,5.64082286 0.426882857,5.62985143 L1.83834,0.669394286 C1.85531143,0.613165714 1.93026857,0.556937143 1.99108286,0.556937143 L8.31718286,0.556937143 C8.32991143,0.556937143 8.33556857,0.55968 8.33698286,0.562422857 C8.33556857,0.55968 8.33556857,0.556937143 8.33274,0.556937143 C8.33274,0.556937143 8.33556857,0.565165714 8.33132571,0.576137143 L6.91845429,5.53659429 C6.90148286,5.59282286 6.82935429,5.64905143 6.76854,5.64905143 L0.44244,5.64905143 Z M6.76854,6.00013714 C6.98916857,6.00013714 7.20979714,5.83693714 7.26919714,5.62985143 L8.68065429,0.669394286 C8.71459714,0.554194286 8.69338286,0.433508571 8.62266857,0.345737143 C8.55195429,0.256594286 8.44305429,0.205851429 8.31718286,0.205851429 L1.99108286,0.205851429 C1.76762571,0.205851429 1.54841143,0.369051429 1.48759714,0.576137143 L0.0747257143,5.53659429 C0.0436114286,5.65453714 0.0619971429,5.76973714 0.134125714,5.85750857 C0.203425714,5.94939429 0.316568571,6.00013714 0.44244,6.00013714 L6.76854,6.00013714 Z" id="Fill-1" fill="#FFFFFE" mask="url(#mask-2)"></path>
            </g>
            <path d="M10.3938202,58.6336095 C10.3835019,58.6336095 10.3761317,58.6336095 10.3746577,58.6307692 C10.3761317,58.6336095 10.3776058,58.6336095 10.3776058,58.6336095 C10.3776058,58.6336095 10.3776058,58.627929 10.3805539,58.616568 L11.8516461,53.48 C11.8693346,53.4217751 11.9474587,53.3635503 12.0078944,53.3635503 L18.6027507,53.3635503 C18.6174911,53.3635503 18.6233873,53.3663905 18.6233873,53.3663905 C18.6233873,53.3663905 18.6233873,53.3635503 18.6204392,53.3635503 C18.6233873,53.3635503 18.6233873,53.372071 18.6189652,53.383432 L17.1449248,58.52 C17.1272364,58.5782249 17.0520603,58.6336095 16.9886766,58.6336095 L10.3938202,58.6336095 Z M16.9886766,59 C17.2201009,59 17.4500512,58.8310059 17.5119609,58.616568 L18.9845272,53.48 C19.0184301,53.3578698 18.9963195,53.2385799 18.9211434,53.1448521 C18.8503895,53.0525444 18.7354143,53 18.6027507,53 L12.0078944,53 C11.77647,53 11.5494678,53.1661538 11.4890322,53.383432 L10.0149919,58.52 C9.98256298,58.6392899 10.0031995,58.7642604 10.0724794,58.8551479 C10.1476555,58.9474556 10.2655787,59 10.3938202,59 L16.9886766,59 Z" id="Fill-4" fill="#FFFFFE"></path>
            <path d="M13.3967591,51.6337828 C13.3849681,51.6337828 13.376125,51.6309439 13.3746511,51.6309439 C13.376125,51.6309439 13.3790727,51.6337828 13.3790727,51.6366217 C13.3790727,51.6337828 13.3790727,51.628105 13.3805466,51.6139106 L14.852938,46.4826118 C14.8706243,46.4215756 14.9502131,46.3662172 15.0121154,46.3662172 L21.6032409,46.3662172 C21.6150319,46.3662172 21.623875,46.3690561 21.623875,46.3690561 C21.623875,46.3690561 21.6209273,46.3662172 21.6209273,46.3633783 C21.6209273,46.3662172 21.623875,46.371895 21.6194534,46.3860894 L20.147062,51.5202271 C20.1308495,51.5784244 20.0512608,51.6337828 19.9893585,51.6337828 L13.3967591,51.6337828 Z M19.9893585,52 C20.2192814,52 20.4462567,51.8310859 20.5096329,51.6139106 L21.9834982,46.4826118 C22.0188709,46.3605394 21.996763,46.238467 21.9230697,46.1447835 C21.8508503,46.0553584 21.7329411,46 21.6032409,46 L15.0121154,46 C14.7777708,46 14.5493217,46.1689141 14.4903671,46.3860894 L13.0165018,51.5202271 C12.9811291,51.6422995 13.003237,51.761533 13.0769303,51.8523776 C13.1491497,51.9446416 13.2641112,52 13.3967591,52 L19.9893585,52 Z" id="Fill-6" fill="#FFFFFE"></path>
            <path d="M15.3950243,44.6364497 C15.383232,44.6364497 15.3758619,44.6336095 15.3758619,44.6336095 L15.3788099,44.6364497 C15.3788099,44.6364497 15.3758619,44.627929 15.3788099,44.616568 L16.8528448,39.48 C16.8675851,39.4217751 16.948657,39.3663905 17.0120405,39.3663905 L23.6053984,39.3663905 C23.6157166,39.3663905 23.6245608,39.3692308 23.6245608,39.3692308 L23.6216127,39.3635503 C23.6230868,39.3663905 23.6230868,39.372071 23.6186647,39.383432 L22.1475779,44.52 C22.1284155,44.5810651 22.0502916,44.6364497 21.9898562,44.6364497 L15.3950243,44.6364497 Z M21.9898562,45 C22.2198056,45 22.449755,44.8338462 22.5101905,44.616568 L23.9827513,39.48 C24.0196021,39.3607101 23.9960176,39.2385799 23.9252639,39.1476923 C23.8500881,39.0553846 23.7336394,39 23.6053984,39 L17.0120405,39 C16.777669,39 16.5477196,39.1689941 16.4887582,39.3862722 L15.0161974,44.52 C14.9822946,44.6421302 15.001457,44.7642604 15.0751588,44.8551479 C15.1488605,44.9474556 15.2638352,45 15.3950243,45 L21.9898562,45 Z" id="Fill-8" fill="#FFFFFE"></path>
            <path d="M17.3952323,35.6364497 C17.3834416,35.6364497 17.3775462,35.6336095 17.3745986,35.6307692 C17.3775462,35.6336095 17.3790201,35.6336095 17.3804939,35.6364497 C17.3790201,35.6336095 17.3775462,35.627929 17.3804939,35.616568 L18.8543288,30.48 C18.8690672,30.4217751 18.9471804,30.3663905 19.0120292,30.3663905 L25.6030188,30.3663905 L25.6236525,30.3663905 C25.6236525,30.3663905 25.6221787,30.3663905 25.6221787,30.3635503 C25.6221787,30.3663905 25.6221787,30.372071 25.619231,30.383432 L24.1453961,35.52 C24.1291839,35.5782249 24.0540183,35.6364497 23.9906434,35.6364497 L17.3952323,35.6364497 Z M23.9906434,36 C24.2205617,36 24.4475323,35.8310059 24.5109072,35.616568 L25.9817944,30.48 C26.0201141,30.3607101 25.9965327,30.2357396 25.9243148,30.1476923 C25.8491492,30.0525444 25.7341901,30 25.6030188,30 L19.0120292,30 C18.7791632,30 18.549245,30.1689941 18.4888178,30.383432 L17.0164567,35.52 C16.9810847,35.6421302 17.0031922,35.7642604 17.0783578,35.8551479 C17.1505757,35.9474556 17.2670086,36 17.3952323,36 L23.9906434,36 Z" id="Fill-10" fill="#FFFFFE"></path>
            <path d="M19.3949151,28.6364497 C19.3831252,28.6364497 19.3757564,28.6336095 19.3757564,28.6307692 C19.3757564,28.6336095 19.3772302,28.6336095 19.3801777,28.6364497 C19.3801777,28.6364497 19.3757564,28.6307692 19.3816514,28.616568 L20.8539189,23.48 C20.8686563,23.4217751 20.9467646,23.3635503 21.0101354,23.3635503 L27.6021799,23.3635503 C27.6154435,23.3635503 27.6213385,23.3663905 27.624286,23.3663905 L27.6213385,23.3635503 C27.6213385,23.3635503 27.6213385,23.372071 27.6198647,23.383432 L26.1475973,28.52 C26.1299124,28.5782249 26.0518041,28.6364497 25.989907,28.6364497 L19.3949151,28.6364497 Z M25.989907,29 C26.2227581,29 26.4482405,28.8310059 26.5101376,28.616568 L27.9838788,23.48 C28.0192486,23.3578698 27.9956688,23.2385799 27.920508,23.1448521 C27.8482946,23.0525444 27.7333428,23 27.6021799,23 L21.0101354,23 C20.7787581,23 20.5488544,23.1689941 20.4884311,23.383432 L19.0161636,28.52 C18.9807938,28.6421302 19.0043737,28.7642604 19.0780607,28.8551479 C19.150274,28.9474556 19.2652259,29 19.3949151,29 L25.989907,29 Z" id="Fill-12" fill="#FFFFFE"></path>
            <path d="M24.3949453,12.6337828 C24.3831523,12.6337828 24.3757817,12.6309439 24.3757817,12.6309439 L24.3772558,12.6337828 C24.3772558,12.6337828 24.3772558,12.628105 24.3816782,12.6139106 L25.8513803,7.48261178 C25.8690698,7.42157559 25.9471984,7.36621718 26.0091117,7.36621718 L32.6043448,7.36621718 C32.6161378,7.36621718 32.6249826,7.36905607 32.6249826,7.36905607 C32.6249826,7.36905607 32.6220343,7.36621718 32.6220343,7.36337828 C32.6220343,7.36621718 32.6249826,7.37189496 32.6176119,7.38325053 C32.6176119,7.38608943 31.1464356,12.5173882 31.1464356,12.5173882 C31.1287462,12.5784244 31.0535658,12.6337828 30.9916526,12.6337828 L24.3949453,12.6337828 Z M30.9916526,13 C31.2245642,13 31.4456829,12.8367637 31.5120185,12.6167495 L32.9831948,7.48261178 C33.0185738,7.36053939 32.9979361,7.238467 32.9227557,7.14762243 C32.8534719,7.05535841 32.7355419,7 32.6043448,7 L26.0091117,7 C25.7776741,7 25.5491848,7.16891412 25.4887457,7.38608943 L24.0146212,12.5173882 C23.9821904,12.6394606 24.0043023,12.761533 24.0750603,12.8523776 C24.1502406,12.9446416 24.2652223,13 24.3949453,13 L30.9916526,13 Z" id="Fill-14" fill="#FFFFFE"></path>
            <path d="M6.30907546,60 C6.4486033,60 6.58676322,59.8820862 6.62506498,59.733938 L7.99161708,54.266062 C8.027183,54.1209373 7.94647572,54 7.8083158,54 L1.68824164,54 C1.55281756,54 1.41055387,54.1209373 1.37498795,54.266062 L0.00980377442,59.733938 C-0.0298659061,59.8820862 0.054945135,60 0.190369217,60 L6.30907546,60 Z" id="Fill-16" fill="#FFFFFE"></path>
            <path d="M8.30960029,52 C8.44775228,52 8.5872721,51.8790627 8.62420382,51.733938 L9.99067743,46.266062 C10.028977,46.1209373 9.94553866,46 9.80875452,46 L3.68766403,46 C3.55224772,46 3.41136005,46.1209373 3.37442834,46.266062 L2.00932257,51.733938 C1.97102301,51.8790627 2.05446134,52 2.19124548,52 L8.30960029,52 Z" id="Fill-18" fill="#FFFFFE"></path>
            <path d="M11.3115021,45 C11.4469205,45 11.5878103,44.8790627 11.6247425,44.7309146 L12.9912367,39.266062 C13.028169,39.1209373 12.9447294,39 12.8093111,39 L6.69086402,39 C6.55270995,39 6.4104523,39.1209373 6.37625575,39.266062 L5.00839367,44.7309146 C4.97282926,44.8790627 5.05353312,45 5.18895146,45 L11.3115021,45 Z" id="Fill-20" fill="#FFFFFE"></path>
            <path d="M12.3107234,37 C12.446125,37 12.5897328,36.8820267 12.6239252,36.7338039 L13.9916185,31.2661961 C14.0271785,31.1179733 13.9464846,31 13.8083476,31 L7.6906554,31 C7.55251838,31 7.41027827,31.1179733 7.37471825,31.2661961 L6.00839263,36.7338039 C5.97283261,36.8820267 6.05352651,37 6.18892815,37 L12.3107234,37 Z" id="Fill-22" fill="#FFFFFE"></path>
            <path d="M15.3101274,29 C15.4496494,29 15.5878036,28.8820267 15.6247359,28.7338039 L16.991231,23.2661961 C17.0281633,23.1179733 16.9447237,23 16.8106731,23 L10.6881183,23 C10.551332,23 10.4104421,23.1179733 10.3762456,23.2661961 L9.00838257,28.7338039 C8.97281813,28.8820267 9.05352205,29 9.19167621,29 L15.3101274,29 Z" id="Fill-24" fill="#FFFFFE"></path>
            <path d="M17.3085193,22 C17.4466862,22 17.5875891,21.8820862 17.6231569,21.733938 L18.9911462,16.266062 C19.0280819,16.1209373 18.9460025,16 18.8092036,16 L12.6874515,16 C12.5506526,16 12.4083817,16.1209373 12.371446,16.266062 L11.0102966,21.733938 C10.9692569,21.8820862 11.0554403,22 11.1881352,22 L17.3085193,22 Z" id="Fill-26" fill="#FFFFFE"></path>
            <path d="M7.31067547,22 C7.44608748,22 7.58970628,21.8820862 7.62390123,21.7309146 L8.99169928,16.2630385 C9.02726203,16.1209373 8.94519415,16 8.80978214,16 L2.69025363,16 C2.55347383,16 2.40985503,16.1209373 2.37566008,16.2630385 L1.00922982,21.7309146 C0.970931477,21.8820862 1.05573496,22 1.19114696,22 L7.31067547,22 Z" id="Fill-28" fill="#FFFFFE"></path>
            <path d="M18.2636852,4.27123771 C18.2992516,4.12603983 18.4401492,4.00504159 18.5783109,4.00504159 L22.8079755,4.00504159 C22.9447693,4.00504159 23.0856669,3.88706831 23.1239692,3.74187043 L23.9912419,0.266196118 C24.0281763,0.11797328 23.944732,0 23.8079382,0 L17.6891512,0 C17.5523574,0 17.4100918,0.11797328 17.3745254,0.266196118 L16.0093232,5.73682884 C15.971021,5.88051424 16.0544652,6 16.191259,6 L17.582452,6 C17.7192458,6 17.8615114,5.88051424 17.8984457,5.73682884 L18.2636852,4.27123771 Z" id="Fill-30" fill="#FFFFFE"></path>
            <path d="M51.5071225,11.0004274 L48.9843305,11.0004274 L48.9843305,26.9995726 L51.5071225,26.9995726 C51.7834758,26.9995726 52,27.2132934 52,27.4911306 L52,28.5070172 C52,28.7848543 51.7834758,29 51.5071225,29 L44.4900285,29 C44.2150997,29 44,28.7848543 44,28.5070172 L44,27.4911306 C44,27.2132934 44.2150997,26.9995726 44.4900285,26.9995726 L46.982906,26.9995726 L46.982906,11.0004274 L44.4900285,11.0004274 C44.2150997,11.0004274 44,10.7838569 44,10.5074446 L44,9.49155803 C44,9.21372088 44.2150997,9 44.4900285,9 L51.5071225,9 C51.7834758,9 52,9.21372088 52,9.49155803 L52,10.5074446 C52,10.7838569 51.7834758,11.0004274 51.5071225,11.0004274" id="Fill-32" fill="#FFFFFE"></path>
            <path d="M63.4512013,15.6794151 C64.6113751,16.2943382 66,17.6216723 66,20.3753281 L66,30.4810649 C66,30.7735283 65.7730419,31 65.4803855,31 L64.4172662,31 C64.1290892,31 63.9036243,30.7735283 63.9036243,30.4810649 L63.9036243,20.3753281 C63.9036243,19.0164979 63.4512013,18.0761155 62.5179856,17.5571804 C61.7758925,17.135733 60.9666078,17.1027372 60.9337587,17.1027372 L60.6455816,17.1027372 C59.291299,17.1027372 58.3879462,17.7851519 57.4875797,18.6580427 C57.2606217,18.8515186 57.099362,19.2414698 57.099362,19.5339333 L57.099362,30.4810649 C57.099362,30.7735283 56.8738971,31 56.5827338,31 L55.5196145,31 C55.2284512,31 55,30.7735283 55,30.4810649 L55,15.743907 C55,15.4544432 55.2284512,15.2249719 55.5196145,15.2249719 L56.5827338,15.2249719 C56.8738971,15.2249719 57.099362,15.4184477 57.099362,15.7109111 L57.099362,16.1983502 C58.035564,15.5189351 59.1643817,15 60.6455816,15 L60.9337587,15 C61.0621691,15 62.2581784,15.0314961 63.4512013,15.6794151" id="Fill-34" fill="#FFFFFE"></path>
            <path d="M78.715315,26.1216521 C78.7451571,26.0920496 79.3292097,22.958627 78.715315,19.8888497 C78.2236309,17.3652382 76.2298942,17.076614 75.4014206,17.076614 C74.113947,17.076614 73.2229471,17.7500705 72.3617893,18.6115027 C72.1486314,18.8364815 71.9937367,19.2183535 71.9937367,19.5069777 L71.9937367,26.4739216 C71.9937367,26.7640259 72.1486314,27.1769805 72.3617893,27.3708768 C73.2229471,28.2633916 74.113947,28.9338878 75.4014206,28.9338878 C76.2298942,28.9338878 78.2236309,28.6482239 78.715315,26.1216521 M75.4014206,31.0134621 C73.9576312,31.0134621 72.8833155,30.4717367 71.9937367,29.7982802 L71.9937367,35.4567945 C71.9937367,35.7454187 71.7791577,36 71.5034736,36 L70.4902631,36 C70.216,36 70,35.7454187 70,35.4567945 L70,15.7341415 C70,15.4484776 70.216,15.2234987 70.4902631,15.2234987 L71.5034736,15.2234987 C71.7791577,15.2234987 71.9937367,15.4484776 71.9937367,15.7030589 L71.9937367,16.2151818 C72.8833155,15.5121229 73.9576312,15 75.4014206,15 C78.1014203,15 80.1264202,16.7258246 80.6806306,19.4758951 C81.3840516,22.958627 80.7104727,26.3791937 80.6806306,26.537567 C80.1264202,29.2876374 78.1014203,31.0134621 75.4014206,31.0134621" id="Fill-36" fill="#FFFFFE"></path>
            <path d="M86.2090756,21.739255 L93.8073909,21.739255 C93.7421889,20.6848138 93.5753929,19.9512894 93.5753929,19.8847398 C92.9855416,17.3632498 90.8930102,17.0748683 90.0074751,17.0748683 C89.1234564,17.0748683 86.9960494,17.3632498 86.4365247,19.8847398 C86.4365247,19.9512894 86.271245,20.6848138 86.2090756,21.739255 M95.4435079,23.8126444 L86.1438736,23.8126444 C86.1772328,24.5491265 86.271245,25.3151862 86.4365247,26.1123024 C86.9960494,28.6367502 89.1234564,28.922174 90.0074751,28.922174 C90.7595734,28.922174 92.398723,28.700342 93.2160234,27.1031519 C93.3479438,26.8487845 93.6421113,26.6239948 93.9362788,26.6239948 L95.0826221,26.6239948 C95.3783059,26.6239948 95.5739121,26.8487845 95.4753508,27.1342083 C94.7217362,29.5329513 92.6595313,31 90.0074751,31 C87.1249372,31 84.964171,29.2756262 84.3424769,26.5278676 C83.5888623,23.0480636 84.3091177,19.599316 84.3424769,19.4721324 L84.3424769,19.4366392 C84.964171,16.6933173 87.1249372,15 90.0074751,15 C92.8551375,15 95.01742,16.6933173 95.6391141,19.4366392 L95.6391141,19.4721324 C95.670957,19.5667807 96,21.161013 96,23.3053887 C96,23.5908125 95.7361591,23.8126444 95.4435079,23.8126444" id="Fill-38" fill="#FFFFFE"></path>
            <path d="M103.507123,15 C103.782051,15 104,15.2249719 104,15.5189351 L104,16.552306 C104,16.8447694 103.782051,17.0712411 103.507123,17.1027372 C102.122507,17.2347207 101.200855,17.8496438 100.37037,18.6580427 C100.153846,18.8515186 100,19.2414698 100,19.5339333 L100,30.4810649 C100,30.7750281 99.7863248,31 99.5071225,31 L98.491453,31 C98.2165242,31 98,30.7750281 98,30.4810649 L98,15.7124109 C98,15.4184477 98.2165242,15.1934758 98.491453,15.1934758 L99.5071225,15.1934758 C99.7863248,15.1934758 100,15.4184477 100,15.7124109 L100,16.2628421 C100.863248,15.647919 102.031339,15.095988 103.507123,15" id="Fill-40" fill="#FFFFFE"></path>
            <path d="M114.561043,22.6635549 C116.137007,23.3053887 117,24.6127184 117,26.3060357 C117,28.2847768 116.165582,29.3702745 115.486904,29.9455587 C114.622481,30.618449 113.450868,31 111.99921,31 C110.55041,31 109.378796,30.618449 108.514374,29.9455587 C107.8657,29.4368241 107.125583,28.4755523 107.002706,26.8487845 C106.971273,26.560403 107.218455,26.3060357 107.495641,26.3060357 L108.48294,26.3060357 C108.761555,26.3060357 108.974446,26.560403 109.007309,26.8487845 C109.10018,27.4876606 109.345934,27.9668176 109.747426,28.3158333 C110.241789,28.700342 111.014769,28.922174 111.99921,28.922174 C112.986509,28.922174 113.758059,28.700342 114.253852,28.3158333 C114.745358,27.9032258 114.993969,27.2332933 114.993969,26.3060357 C114.993969,25.7943433 114.871092,25.0297625 113.820926,24.5816619 C113.69805,24.5180701 112.556441,24.1025049 111.662014,23.7490526 C110.364666,23.2698956 109.563111,22.9844718 109.407372,22.9208799 C108.02001,22.3455957 107.187021,21.1329143 107.187021,19.6629078 C107.187021,17.5540253 107.988576,15 111.907767,15 L111.99921,15 C115.579776,15 116.567074,17.1414179 116.689951,19.1512155 C116.721385,19.4366392 116.475631,19.6629078 116.197016,19.6629078 L115.209717,19.6629078 C114.93253,19.6629078 114.713925,19.4366392 114.68392,19.1512155 C114.561043,17.6486736 113.790922,17.0748683 111.99921,17.0748683 L111.907767,17.0748683 C109.933169,17.0748683 109.191623,17.7758573 109.191623,19.6629078 C109.191623,20.4304464 109.714563,20.8119974 110.148918,21.0027729 C110.304656,21.0338294 111.413403,21.4819299 112.339264,21.8028468 C113.636611,22.2820039 114.408162,22.599963 114.561043,22.6635549" id="Fill-42" fill="#FFFFFE"></path>
            <path d="M127.71544,26.1216521 C127.745283,26.0920496 128.329344,22.958627 127.71544,19.8888497 C127.223749,17.3652382 125.228563,17.076614 124.401498,17.076614 C123.112585,17.076614 122.222993,17.7500705 121.363244,18.6115027 C121.148662,18.8364815 120.995186,19.2183535 120.995186,19.5069777 L120.995186,26.4739216 C120.995186,26.7640259 121.148662,27.1769805 121.363244,27.3708768 C122.222993,28.2633916 123.112585,28.9338878 124.401498,28.9338878 C125.228563,28.9338878 127.223749,28.6482239 127.71544,26.1216521 M124.401498,31.0134621 C122.959109,31.0134621 121.886199,30.4717367 120.995186,29.7982802 L120.995186,35.4567945 C120.995186,35.7454187 120.779183,36 120.503495,36 L119.488849,36 C119.217424,36 119,35.7454187 119,35.4567945 L119,15.7341415 C119,15.4484776 119.217424,15.2234987 119.488849,15.2234987 L120.503495,15.2234987 C120.779183,15.2234987 120.995186,15.4484776 120.995186,15.7030589 L120.995186,16.2151818 C121.886199,15.5121229 122.959109,15 124.401498,15 C127.101537,15 129.126566,16.7258246 129.679363,19.4758951 C130.385637,22.958627 129.709206,26.3791937 129.679363,26.537567 C129.126566,29.2876374 127.101537,31.0134621 124.401498,31.0134621" id="Fill-44" fill="#FFFFFE"></path>
            <path d="M135.20827,21.739255 L142.80721,21.739255 C142.740487,20.6848138 142.575193,19.9512894 142.575193,19.8847398 C141.988326,17.3632498 139.89259,17.0748683 139.010015,17.0748683 C138.124407,17.0748683 135.995308,17.3632498 135.437254,19.8847398 C135.437254,19.9512894 135.27651,20.6848138 135.20827,21.739255 M144.444979,23.8126444 L135.144579,23.8126444 C135.176424,24.5491265 135.27651,25.3151862 135.437254,26.1123024 C135.995308,28.6367502 138.124407,28.922174 139.010015,28.922174 C139.760658,28.922174 141.398427,28.700342 142.217311,27.1031519 C142.347725,26.8487845 142.640401,26.6239948 142.937625,26.6239948 L144.084063,26.6239948 C144.379771,26.6239948 144.575393,26.8487845 144.476824,27.1342083 C143.723147,29.5329513 141.662289,31 139.010015,31 C136.125723,31 133.964779,29.2756262 133.34455,26.5278676 C132.587841,23.0480636 133.308155,19.599316 133.34455,19.4721324 L133.34455,19.4366392 C133.964779,16.6933173 136.125723,15 139.010015,15 C141.856395,15 144.018856,16.6933173 144.642117,19.4366392 L144.642117,19.4721324 C144.672446,19.5667807 145,21.161013 145,23.3053887 C145,23.5908125 144.737654,23.8126444 144.444979,23.8126444" id="Fill-46" fill="#FFFFFE"></path>
            <path d="M155.050151,28.126271 C155.306133,27.8718802 155.720438,27.4562766 155.881721,26.8173415 C155.976419,26.5599926 156.198368,26.3070808 156.488382,26.3070808 L157.510828,26.3070808 C157.796402,26.3070808 158.053863,26.5599926 157.990238,26.8498798 C157.861507,27.9354779 157.287399,28.9234609 156.359651,29.7236088 C155.400831,30.5207987 154.091331,31 152.845456,31 C150.0341,31 147.925583,29.2754668 147.349995,26.5289333 C146.580571,23.0473285 147.314483,19.5982622 147.349995,19.4370494 C147.925583,16.6934738 150.0341,15 152.845456,15 C154.091331,15 155.400831,15.4792013 156.359651,16.2763912 C157.287399,17.0425217 157.861507,18.0645221 157.990238,19.1515992 C158.053863,19.4370494 157.796402,19.6618599 157.510828,19.6618599 L156.488382,19.6618599 C156.198368,19.6618599 155.976419,19.4370494 155.881721,19.1515992 C155.720438,18.5437234 155.306133,18.0970605 155.050151,17.873729 C154.442011,17.3634683 153.644473,17.0735811 152.845456,17.0735811 C151.982814,17.0735811 149.90389,17.3634683 149.362334,19.8851913 C149.362334,19.9162507 148.723121,23.0473285 149.362334,26.0837493 C149.90389,28.6380107 151.982814,28.9234609 152.845456,28.9234609 C153.644473,28.9234609 154.442011,28.6054724 155.050151,28.126271" id="Fill-48" fill="#FFFFFE"></path>
            <path d="M167.53557,17.2500928 L164.232215,17.2500928 L164.232215,25.7755102 C164.232215,26.5755102 164.491275,27.3784787 164.958389,27.987013 C165.21745,28.3061224 165.767785,28.9146568 166.579866,28.9146568 L167.53557,28.9146568 C167.797315,28.9146568 168,29.141744 168,29.4311688 L168,30.4567718 C168,30.7447124 167.797315,31 167.53557,31 L166.579866,31 C165.421477,31 164.319463,30.3914657 163.507383,29.3005566 C162.78255,28.3387755 162.348993,27.0564007 162.348993,25.7755102 L162.348993,17.2500928 L160.46443,17.2500928 C160.201342,17.2500928 160,16.9918367 160,16.7053803 L160,15.6782931 C160,15.3918367 160.201342,15.1662338 160.46443,15.1662338 L162.348993,15.1662338 L162.348993,11.5135436 C162.348993,11.2226345 162.550336,11 162.810738,11 L163.767785,11 C164.02953,11 164.232215,11.2226345 164.232215,11.5135436 L164.232215,15.1662338 L167.53557,15.1662338 C167.797315,15.1662338 168,15.3918367 168,15.6782931 L168,16.7053803 C168,16.9918367 167.797315,17.2500928 167.53557,17.2500928" id="Fill-50" fill="#FFFFFE"></path>
            <path d="M175,11.4933583 L175,12.4757974 C175,12.755272 174.75896,13.0005253 174.451316,13.0005253 L173.319061,13.0005253 C173.011418,13.0005253 172.771963,12.755272 172.771963,12.4757974 L172.771963,11.4933583 C172.771963,11.2153096 173.011418,11 173.319061,11 L174.451316,11 C174.75896,11 175,11.2153096 175,11.4933583 M175,15.4958349 L175,29.5066417 C175,29.7846904 174.75896,30 174.451316,30 L173.319061,30 C173.011418,30 172.771963,29.7846904 172.771963,29.5066417 L172.771963,17.0044278 L170.547098,17.0044278 C170.237869,17.0044278 170,16.7563227 170,16.4811257 L170,15.4958349 C170,15.219212 170.237869,15.0024765 170.547098,15.0024765 L174.451316,15.0024765 C174.75896,15.0024765 175,15.219212 175,15.4958349" id="Fill-52" fill="#FFFFFE"></path>
            <path d="M182.225988,31 C181.936236,31 181.613626,30.7718197 181.549403,30.5071306 L177.161305,17.7929264 C177.065717,17.5297585 177,17.0688344 177,16.7737212 L177,15.5263358 C177,15.2327439 177.227022,15 177.518267,15 L178.580193,15 C178.871438,15 179.095473,15.2327439 179.095473,15.5263358 L179.095473,16.938011 L183.192325,28.8642327 L183.804688,28.8642327 L187.903033,16.938011 L187.903033,15.5263358 C187.903033,15.2327439 188.128562,15 188.418313,15 L189.481733,15 C189.772978,15 190,15.2327439 190,15.5263358 L190,16.7737212 C190,17.0688344 189.934283,17.5297585 189.837201,17.7929264 L185.450597,30.5071306 C185.355009,30.7718197 185.06227,31 184.774012,31 L182.225988,31 Z" id="Fill-54" fill="#FFFFFE"></path>
            <g id="Group-58" transform="translate(192.000000, 15.000000)">
                <mask id="mask-4" fill="white">
                    <use xlink:href="#path-3"></use>
                </mask>
                <g id="Clip-57"></g>
                <path d="M2.47870769,7.01720648 L9.67111795,7.01720648 C9.60937436,5.95100741 9.45142564,5.2093037 9.45142564,5.14201204 C8.89716923,2.59240556 6.91132308,2.30080833 6.07563077,2.30080833 C5.23850256,2.30080833 3.22106667,2.59240556 2.69409231,5.14201204 C2.69409231,5.2093037 2.54188718,5.95100741 2.47870769,7.01720648 M11.2218872,9.11371574 L2.41552821,9.11371574 C2.44711795,9.85841019 2.54188718,10.633012 2.69409231,11.4390167 C3.22106667,13.9916139 5.23850256,14.2802204 6.07563077,14.2802204 C6.7878359,14.2802204 8.33860513,14.0559148 9.11255385,12.4409148 C9.23604103,12.1837111 9.51604103,11.9564148 9.79460513,11.9564148 L10.8815795,11.9564148 C11.1601436,11.9564148 11.3468103,12.1837111 11.2534769,12.4723176 C10.5384,14.8978083 8.58701538,16.3812157 6.07563077,16.3812157 C3.34598974,16.3812157 1.2998359,14.6376139 0.711117949,11.8592157 C-0.00395897436,8.34060926 0.67665641,4.85340556 0.711117949,4.7248037 L0.711117949,4.68891481 C1.2998359,1.91500278 3.34598974,0.202803704 6.07563077,0.202803704 C8.77368205,0.202803704 10.8184,1.91500278 11.4085538,4.68891481 L11.4085538,4.7248037 C11.4372718,4.82050741 11.7488615,6.43251667 11.7488615,8.6008037 C11.7488615,8.88941019 11.5018872,9.11371574 11.2218872,9.11371574" id="Fill-56" fill="#FFFFFE" mask="url(#mask-4)"></path>
            </g>
            <path d="M46.104862,47.4136924 L51.0036956,47.4136924 C51.0036956,47.4136924 52.039612,47.3837715 53.0424991,46.8907886 C54.2780922,46.2781221 54.8936367,45.229465 54.8936367,43.6935243 C54.8936367,42.1547339 54.2780922,41.1075016 53.0109712,40.4934103 C52.0080841,40.0303484 51.0036956,40.0004274 51.0036956,40.0004274 L46.104862,40.0004274 L46.104862,47.4136924 Z M53.9538053,48.7074161 C53.4328444,48.9524827 52.9464141,49.1077866 52.5260423,49.2003989 L56.5766255,55.291444 C56.7417716,55.5065897 56.8693845,55.9368811 56.8693845,56.2161431 L56.8693845,57.5070172 C56.8693845,57.7848543 56.6096547,58 56.318397,58 L55.279478,58 C54.9897217,58 54.7645225,57.7848543 54.7645225,57.5070172 L54.7645225,56.2774097 L50.1569465,49.4141198 L46.104862,49.4141198 L46.104862,57.5070172 C46.104862,57.7848543 45.8811641,58 45.5884051,58 L44.5149555,58 C44.2251992,58 44,57.7848543 44,57.5070172 L44,38.5229038 C44,38.2464914 44.2251992,38 44.5149555,38 L51.0036956,38 C51.1643377,38 52.5260423,38.0299209 53.9538053,38.7067037 C55.3455364,39.3521408 57,40.7683978 57,43.6935243 C57,46.645722 55.3455364,48.0619791 53.9538053,48.7074161 Z" id="Fill-59" fill="#FFFFFE"></path>
            <path d="M62.2074214,48.7362973 L69.8058437,48.7362973 C69.7406407,47.6848138 69.5768751,46.9512894 69.5768751,46.8876976 C68.9885319,44.3632498 66.8914219,44.0748683 66.0089071,44.0748683 C65.1248759,44.0748683 62.997439,44.3632498 62.43639,46.8876976 C62.43639,46.9512894 62.2741407,47.6848138 62.2074214,48.7362973 M71.4419838,50.8126444 L62.1437348,50.8126444 C62.1755781,51.5491265 62.2741407,52.3151862 62.43639,53.1152602 C62.997439,55.6367502 65.1248759,55.9251317 66.0089071,55.9251317 C66.7610159,55.9251317 68.3986723,55.700342 69.2159842,54.1061096 C69.3463901,53.8487845 69.6420781,53.6269526 69.9362497,53.6269526 L71.0826092,53.6269526 C71.3767808,53.6269526 71.5754224,53.8487845 71.4753434,54.1371661 C70.7232346,56.5314724 68.6594843,58 66.0089071,58 C63.1263286,58 60.965532,56.2756262 60.3438291,53.5278676 C59.5871712,50.0480636 60.3104694,46.599316 60.3438291,46.4721324 L60.3438291,46.439597 C60.965532,43.6933173 63.1263286,42 66.0089071,42 C68.8566096,42 71.0189225,43.6933173 71.6406254,46.439597 L71.6406254,46.4721324 C71.6724687,46.5667807 72,48.1639708 72,50.3053887 C72,50.5908125 71.7391881,50.8126444 71.4419838,50.8126444" id="Fill-61" fill="#FFFFFE"></path>
            <path d="M82.0481365,55.126271 C82.3056442,54.8689222 82.7200245,54.4562766 82.8828167,53.8173415 C82.9775322,53.5629506 83.2010015,53.3070808 83.4881078,53.3070808 L84.510739,53.3070808 C84.7963654,53.3070808 85.0538731,53.5629506 84.9902362,53.8498798 C84.8614823,54.9354779 84.2887496,55.9264189 83.3608339,56.7236088 C82.4018396,57.5207987 81.0921021,58 79.8445216,58 C77.0326558,58 74.9237564,56.2754668 74.3480639,53.5289333 C73.5814604,50.0473285 74.3155054,46.5982622 74.3480639,46.4400074 C74.9237564,43.6934738 77.0326558,42 79.8445216,42 C81.0921021,42 82.4018396,42.4792013 83.3608339,43.2763912 C84.2887496,44.0425217 84.8614823,45.0645221 84.9902362,46.1515992 C85.0538731,46.4400074 84.7963654,46.6618599 84.510739,46.6618599 L83.4881078,46.6618599 C83.2010015,46.6618599 82.9775322,46.4400074 82.8828167,46.1515992 C82.7200245,45.5437234 82.3056442,45.1000185 82.0481365,44.873729 C81.4443253,44.3634683 80.6436835,44.0735811 79.8445216,44.0735811 C78.9817228,44.0735811 76.9053819,44.3634683 76.3592879,46.8881494 C76.3592879,46.9162507 75.7214383,50.0473285 76.3592879,53.0807913 C76.9053819,55.6380107 78.9817228,55.9264189 79.8445216,55.9264189 C80.6436835,55.9264189 81.4443253,55.6054724 82.0481365,55.126271" id="Fill-63" fill="#FFFFFE"></path>
            <path d="M96.5920737,46.8876976 C95.9997065,44.3632498 93.903638,44.0748683 93.0166061,44.0748683 C92.1295743,44.0748683 89.9985713,44.3632498 89.4426575,46.8876976 C89.4092419,46.9823459 88.7864969,50.0791201 89.4426575,53.1152602 C89.9985713,55.6367502 92.1295743,55.9251317 93.0166061,55.9251317 C93.903638,55.9251317 96.034641,55.6367502 96.5920737,53.1152602 C97.251272,50.0791201 96.5920737,47.0148812 96.5920737,46.8876976 M98.6562454,53.5278676 C98.0699538,56.2756262 95.9040164,58 93.0166061,58 C90.1291959,58 87.9647774,56.2756262 87.3420324,53.5278676 C86.5886628,50.0480636 87.3101357,46.599316 87.3420324,46.4721324 L87.3420324,46.439597 C87.9647774,43.6933173 90.1291959,42 93.0166061,42 C95.8706008,42 98.0335005,43.6933173 98.6562454,46.439597 L98.6562454,46.4721324 C98.6926988,46.599316 99.4111339,50.0480636 98.6562454,53.5278676" id="Fill-65" fill="#FFFFFE"></path>
            <path d="M107.507005,42 C107.783424,42 108,42.2279715 108,42.5189351 L108,43.5553056 C108,43.8447694 107.783424,44.0712411 107.507005,44.1027372 C106.123486,44.2347207 105.198765,44.8496438 104.369508,45.6610424 C104.152933,45.8545182 103.99905,46.2414698 103.99905,46.5339333 L103.99905,57.4810649 C103.99905,57.7750281 103.783899,58 103.50748,58 L102.49157,58 C102.215151,58 102,57.7750281 102,57.4810649 L102,42.7124109 C102,42.4214473 102.215151,42.1934758 102.49157,42.1934758 L103.50748,42.1934758 C103.783899,42.1934758 103.99905,42.4214473 103.99905,42.7124109 L103.99905,43.2628421 C104.862503,42.647919 106.029447,42.095988 107.507005,42" id="Fill-67" fill="#FFFFFE"></path>
            <path d="M112.284096,47.8783479 C112.284096,47.9079504 111.67006,51.0088103 112.284096,54.1111503 C112.774472,56.6347618 114.771512,56.923386 115.600176,56.923386 C116.889368,56.923386 117.777731,56.2499295 118.668936,55.3574147 C118.853716,55.1635185 119.007225,54.7505639 119.007225,54.4604595 L119.007225,47.4935156 C119.007225,47.2048915 118.853716,46.8230195 118.668936,46.6010008 C117.777731,45.7336482 116.889368,45.063152 115.600176,45.063152 C114.771512,45.063152 112.774472,45.3517761 112.284096,47.8783479 M115.600176,42.9865379 C117.042877,42.9865379 118.117441,43.4986608 119.007225,44.2017198 L119.007225,38.5121229 C119.007225,38.2234987 119.251702,38 119.530293,38 L120.512467,38 C120.786793,38 121,38.2234987 121,38.5121229 L121,58.2658585 C121,58.5544827 120.786793,58.7765013 120.512467,58.7765013 L119.530293,58.7765013 C119.251702,58.7765013 119.007225,58.5544827 119.007225,58.2658585 L119.007225,57.7848182 C118.117441,58.4553144 117.042877,59 115.600176,59 C112.898133,59 110.872666,57.2741754 110.319749,54.5241049 C109.614744,51.0088103 110.291321,47.5897237 110.319749,47.462433 C110.872666,44.7123626 112.898133,42.9865379 115.600176,42.9865379" id="Fill-69" fill="#FFFFFE"></path>
            <path d="M131.562124,49.6635549 C133.138312,50.3053887 134,51.6127184 134,53.3060357 C134,55.2877345 133.168321,56.3702745 132.489546,56.9455587 C131.625,57.618449 130.453219,58 129.002782,58 C127.550917,58 126.379136,57.618449 125.516019,56.9455587 C124.867252,56.4338663 124.1256,55.47851 124.002706,53.8487845 C123.971268,53.5633608 124.218485,53.3060357 124.497141,53.3060357 L125.483152,53.3060357 C125.760378,53.3060357 125.977586,53.5633608 126.007595,53.8487845 C126.10048,54.4876606 126.347698,54.9668176 126.750676,55.3158333 C127.243681,55.700342 128.013913,55.9251317 129.002782,55.9251317 C129.987364,55.9251317 130.759025,55.700342 131.253459,55.3158333 C131.749323,54.9032258 131.995111,54.2332933 131.995111,53.3060357 C131.995111,52.7943433 131.872217,52.0297625 130.820472,51.5816619 C130.700436,51.5180701 129.557235,51.1025049 128.661251,50.7490526 C127.368005,50.2698956 126.563477,49.9844718 126.409145,49.9208799 C125.018726,49.3455957 124.187047,48.1329143 124.187047,46.6629078 C124.187047,44.5540253 124.990146,42 128.908468,42 L129.002782,42 C132.581002,42 133.569871,44.1384601 133.691336,46.1512155 C133.724203,46.439597 133.475556,46.6629078 133.199759,46.6629078 L132.21089,46.6629078 C131.933664,46.6629078 131.716456,46.439597 131.686447,46.1512155 C131.562124,44.6486736 130.793321,44.0748683 129.002782,44.0748683 L128.908468,44.0748683 C126.933588,44.0748683 126.193365,44.778815 126.193365,46.6629078 C126.193365,47.4274887 126.717809,47.8119974 127.150796,48.0027729 C127.305128,48.0367871 128.415463,48.4848877 129.340026,48.8028468 C130.63756,49.2820039 131.40922,49.599963 131.562124,49.6635549" id="Fill-71" fill="#FFFFFE"></path>
        </g>
    </g>
</svg>