<?xml version="1.0" standalone="no"?>
<!DOCTYPE svg PUBLIC "-//W3C//DTD SVG 20010904//EN"
 "http://www.w3.org/TR/2001/REC-SVG-20010904/DTD/svg10.dtd">
<svg version="1.0" xmlns="http://www.w3.org/2000/svg"
 width="700.000000pt" height="700.000000pt" viewBox="0 0 700.000000 700.000000"
 preserveAspectRatio="xMidYMid meet">
<metadata>
Created by potrace 1.11, written by Peter Selinger 2001-2013
</metadata>
<g transform="translate(0.000000,700.000000) scale(0.100000,-0.100000)"
fill="#000000" stroke="none">
<path d="M1695 5700 c-84 -4 -109 -9 -155 -33 -116 -60 -168 -121 -210 -247
-33 -99 -164 -561 -290 -1025 -5 -16 -15 -52 -23 -80 -8 -27 -54 -192 -101
-365 -48 -173 -111 -400 -141 -505 -29 -104 -83 -296 -119 -425 -36 -129 -90
-325 -121 -435 -31 -110 -58 -207 -60 -215 -2 -8 -13 -49 -25 -90 -12 -41 -30
-109 -41 -150 -11 -41 -40 -145 -64 -230 -41 -146 -80 -293 -92 -350 -30 -134
35 -257 167 -315 42 -19 69 -20 635 -20 324 0 612 4 639 8 95 16 187 80 254
179 37 56 42 70 102 293 28 105 55 204 61 220 5 17 44 154 85 305 42 151 82
290 90 309 12 28 57 78 74 82 3 1 730 3 1615 4 886 2 1659 6 1718 9 126 6 162
16 236 64 99 65 141 137 195 329 87 313 117 419 141 508 15 55 45 163 67 240
23 77 51 178 63 225 13 47 76 274 140 505 64 231 135 485 157 565 97 350 104
393 74 465 -41 97 -106 156 -191 171 -44 8 -4722 12 -4880 4z m4798 -348 c-13
-48 -26 -94 -28 -102 -3 -17 -68 -249 -120 -435 -19 -66 -49 -176 -69 -245
-19 -69 -58 -208 -86 -310 -28 -102 -63 -225 -76 -275 -14 -49 -52 -187 -85
-305 -33 -118 -72 -255 -85 -305 -14 -49 -32 -112 -39 -140 -8 -27 -26 -93
-40 -145 -32 -116 -48 -150 -89 -178 l-31 -21 -1680 -6 c-924 -3 -1703 -7
-1730 -9 -96 -7 -245 -118 -285 -210 -18 -43 -126 -414 -249 -858 -34 -120
-69 -235 -78 -255 -33 -69 -16 -67 -628 -68 -302 0 -557 3 -566 7 -15 6 -15
11 -3 50 7 24 45 160 85 303 39 143 82 298 96 345 13 47 26 94 28 104 3 11 16
58 29 105 14 47 84 300 156 561 72 261 158 572 191 690 33 118 78 278 99 355
199 713 315 1132 351 1264 36 136 57 154 179 161 47 3 1141 6 2431 7 l2346 2
-24 -87z"/>
</g>
</svg>
