<?xml version="1.0" standalone="no"?>
<!DOCTYPE svg PUBLIC "-//W3C//DTD SVG 20010904//EN"
 "http://www.w3.org/TR/2001/REC-SVG-20010904/DTD/svg10.dtd">
<svg version="1.0" xmlns="http://www.w3.org/2000/svg"
 width="700.000000pt" height="700.000000pt" viewBox="0 0 700.000000 700.000000"
 preserveAspectRatio="xMidYMid meet">
<metadata>
Created by potrace 1.11, written by Peter Selinger 2001-2013
</metadata>
<g transform="translate(0.000000,700.000000) scale(0.100000,-0.100000)"
fill="#000000" stroke="none">
<path d="M1623 5700 c-52 -12 -138 -58 -181 -96 -75 -65 -96 -112 -171 -379
-86 -303 -94 -331 -171 -615 -34 -124 -64 -232 -68 -240 -3 -8 -6 -19 -7 -25
-2 -5 -10 -35 -18 -65 -8 -30 -52 -188 -97 -350 -44 -162 -105 -380 -135 -485
-29 -104 -68 -242 -85 -305 -17 -63 -58 -209 -90 -325 -96 -340 -259 -926
-310 -1115 -36 -133 -47 -188 -45 -231 6 -110 72 -198 180 -238 56 -21 67 -21
649 -21 630 1 630 1 727 50 62 32 143 118 173 184 14 31 26 60 26 65 0 5 11
46 24 92 13 46 35 129 50 184 15 55 32 114 37 130 5 17 41 145 79 285 96 350
99 358 139 389 l34 26 1706 1 c1595 1 1709 3 1756 19 109 38 200 116 243 208
16 35 60 177 77 247 1 8 24 89 50 180 26 91 48 172 50 181 4 18 49 182 105
379 22 74 98 349 170 610 73 261 150 538 171 615 79 282 97 360 93 400 -9 83
-58 167 -119 205 -85 53 61 50 -2570 49 -1342 -1 -2454 -5 -2472 -9z m4870
-348 c-13 -48 -26 -95 -28 -105 -3 -15 -68 -246 -120 -432 -39 -136 -59 -209
-120 -430 -36 -132 -73 -262 -81 -290 -8 -27 -34 -122 -58 -210 -24 -88 -76
-275 -116 -415 -39 -140 -79 -286 -90 -325 -43 -166 -52 -190 -87 -223 -19
-17 -44 -32 -56 -33 -12 0 -785 -2 -1717 -3 -932 -1 -1704 -6 -1715 -10 -119
-46 -211 -120 -255 -206 -16 -31 -141 -468 -279 -971 -20 -75 -44 -148 -53
-161 -37 -57 -33 -56 -646 -56 -486 0 -563 2 -558 14 3 8 13 43 21 77 14 53
70 258 120 432 7 28 32 115 54 195 22 80 60 217 85 305 25 88 52 185 60 215 8
30 62 228 121 440 200 718 235 845 280 1005 24 88 69 248 98 355 151 539 201
720 215 775 18 73 41 107 84 128 29 14 276 15 2449 15 l2417 0 -25 -86z"/>
</g>
</svg>
